#!OML:ASF F:\VICON\USERDATA\INSTALL\rory3\rory3.ASF
:FULLY-SPECIFIED
:DEGREES
773
root -10.013 16.1682 -13.5336 -140.038 -42.4777 -188.634
lowerback -10.9196 -3.56974 -2.88074
upperback -18.3188 -9.06731 -5.49633
thorax -15.2001 -6.19273 -3.98296
lowerneck -5.0201 12.765 2.64349
upperneck -3.55992 16.7889 -0.926188
head -0.00600655 8.3327 -0.408067
rclavicle 8.98507e-014 4.45278e-014
rhumerus -20.7282 -25.0167 2.28299
rradius 22.437
rwrist 11.3689
rhand 3.50371 8.76158
rfingers 7.12502
rthumb 28.9418 -19.0122
lclavicle 8.98507e-014 4.45278e-014
lhumerus 65.1765 3.35836 23.176
lradius 31.2996
lwrist -17.2652
lhand -15.8768 15.8067
lfingers 7.12502
lthumb 10.319 45.5335
rfemur 291.396 -3.05737 -334.855
rtibia 42.7691
rfoot 132.235 -230.895
rtoes 37.7479
lfemur -17.9288 0.550814 -22.87
ltibia 34.5095
lfoot 182.779 -138.163
ltoes 33.3086
774
root -9.99868 16.1673 -13.5209 -140.635 -42.9175 -188.216
lowerback -10.3611 -3.19615 -2.09584
upperback -18.1658 -8.53567 -5.79012
thorax -15.4515 -6.02864 -4.71298
lowerneck -6.07483 12.7393 3.08528
upperneck -2.055 16.7139 -1.46419
head 0.720175 8.29827 -0.484026
rclavicle 6.2816e-014 2.70347e-014
rhumerus -22.4096 -22.5783 2.22033
rradius 22.9838
rwrist 8.49169
rhand 1.28685 9.90153
rfingers 7.12502
rthumb 26.8224 -18.2162
lclavicle 6.2816e-014 2.70347e-014
lhumerus 65.7849 3.17594 27.5959
lradius 29.5177
lwrist -21.0414
lhand -16.9188 13.9623
lfingers 7.12502
lthumb 9.31367 43.7365
rfemur 291.652 -3.51617 -334.01
rtibia 42.807
rfoot 132.961 -230.933
rtoes 37.304
lfemur -17.3562 0.277419 -22.3203
ltibia 34.495
lfoot 175.96 -139.128
ltoes 37.7393
775
root -10.0175 16.1834 -13.4839 -140.604 -43.6176 -188.607
lowerback -10.3354 -3.32776 -1.56793
upperback -17.5472 -8.42154 -5.74855
thorax -14.6725 -5.93173 -5.01028
lowerneck -5.04076 13.127 3.88065
upperneck -4.38107 17.1344 -4.26353
head 0.169939 8.46749 -1.55361
rclavicle -1.82882e-014 -2.54444e-014
rhumerus -22.7421 -27.7864 3.25586
rradius 21.772
rwrist 12.1796
rhand -0.486621 12.1921
rfingers 7.12502
rthumb 25.1242 -16.1748
lclavicle -1.82882e-014 -2.54444e-014
lhumerus 64.5516 3.24315 26.6087
lradius 30.0947
lwrist -19.3151
lhand -17.8952 14.0384
lfingers 7.12502
lthumb 8.37144 43.8525
rfemur 291.596 -7.30537 -331.115
rtibia 42.8627
rfoot 136.466 -227.76
rtoes 37.3455
lfemur -17.2066 1.21381 -22.6237
ltibia 34.5708
lfoot 191.469 -141.477
ltoes 23.1128
776
root -9.98712 16.1591 -13.5335 -140.245 -43.6322 -188.634
lowerback -11.5797 -3.57951 -2.73668
upperback -17.9692 -8.8547 -5.48946
thorax -14.323 -6.05963 -4.17514
lowerneck -5.62164 13.804 3.6304
upperneck -1.6717 18.1428 -2.61271
head 0.963486 9.00461 -0.843196
rclavicle 3.49861e-014 -1.59028e-014
rhumerus -22.8964 -22.9824 1.23755
rradius 22.8198
rwrist 8.08165
rhand -2.7749 12.4828
rfingers 7.12502
rthumb 22.93 -16.1737
lclavicle 3.49861e-014 -1.59028e-014
lhumerus 62.7597 2.8084 29.6324
lradius 28.958
lwrist -22.5233
lhand -17.8086 12.5558
lfingers 7.12502
lthumb 8.45505 42.3666
rfemur 291.34 -5.56228 -332.516
rtibia 42.916
rfoot 134.547 -229.537
rtoes 37.1001
lfemur -17.327 0.77722 -22.427
ltibia 34.5816
lfoot 180.657 -140.449
ltoes 33.6322
777
root -9.97781 16.165 -13.4952 -140.413 -43.75 -188.44
lowerback -11.2454 -3.17079 -2.07326
upperback -18.7655 -8.82764 -6.09051
thorax -15.8766 -6.35748 -5.09927
lowerneck -0.550302 14.0955 6.86429
upperneck -3.57451 18.6902 -4.89223
head 0.101242 9.30344 -2.412
rclavicle 1.10922e-013 8.42847e-014
rhumerus -24.3383 -18.1122 -0.333017
rradius 23.4602
rwrist 4.67756
rhand -4.97051 12.9619
rfingers 7.12502
rthumb 20.8217 -15.9409
lclavicle 1.10922e-013 8.42847e-014
lhumerus 59.8791 -0.66972 26.0694
lradius 30.0966
lwrist -19.2774
lhand -17.5074 13.3324
lfingers 7.12502
lthumb 8.74569 43.1312
rfemur 291.188 -6.30319 -331.686
rtibia 42.9019
rfoot 136.002 -229.195
rtoes 36.5998
lfemur -17.3513 0.882132 -22.531
ltibia 34.7221
lfoot 180.857 -140.536
ltoes 32.2147
778
root -9.95134 16.1401 -13.5216 -139.331 -43.1587 -189.611
lowerback -11.6048 -2.98428 -3.45461
upperback -18.4827 -8.42125 -6.37418
thorax -15.0925 -5.96067 -4.74522
lowerneck -1.16811 14.2314 5.85437
upperneck -4.34812 18.7842 -5.46646
head -0.0736949 9.34569 -2.42397
rclavicle 4.53229e-014 8.11041e-014
rhumerus -25.5087 -19.4054 0.336597
rradius 22.8046
rwrist 4.41207
rhand -6.77625 14.1758
rfingers 7.12502
rthumb 19.086 -14.9077
lclavicle 4.53229e-014 8.11041e-014
lhumerus 60.318 1.05869 34.1096
lradius 28.0587
lwrist -25.7526
lhand -17.1631 11.7505
lfingers 7.12502
lthumb 9.07794 41.5352
rfemur 290.794 -4.84877 -334.194
rtibia 42.9072
rfoot 134.278 -230.93
rtoes 36.6522
lfemur -17.6846 1.64137 -23.7746
ltibia 34.8474
lfoot 187.66 -140.841
ltoes 23.038
779
root -9.94607 16.1603 -13.4592 -140.405 -43.8341 -188.804
lowerback -10.9648 -2.94678 -2.14436
upperback -18.249 -8.27842 -6.28301
thorax -15.2859 -5.99354 -5.31671
lowerneck 1.01254 14.5883 7.14736
upperneck -6.55951 19.252 -7.72223
head -0.753333 9.60489 -3.59014
rclavicle -5.1684e-014 -2.38542e-014
rhumerus -26.2023 -18.7592 -0.699072
rradius 22.958
rwrist 2.45909
rhand -8.32897 14.8386
rfingers 7.12502
rthumb 17.5923 -14.3855
lclavicle -5.1684e-014 -2.38542e-014
lhumerus 58.1071 -0.449388 31.0371
lradius 29.0849
lwrist -21.6899
lhand -17.2686 13.2573
lfingers 7.12502
lthumb 8.97612 43.0463
rfemur 291.239 -6.48979 -332.013
rtibia 42.7732
rfoot 136.269 -229.575
rtoes 36.4717
lfemur -17.3053 2.53608 -23.0479
ltibia 35.0868
lfoot 189.994 -142.517
ltoes 19.4965
780
root -9.91673 16.1522 -13.4465 -140.88 -43.9234 -188.457
lowerback -10.8224 -2.84536 -2.10951
upperback -18.0304 -7.98675 -6.15373
thorax -15.0009 -5.77943 -5.20439
lowerneck -1.40865 14.9602 5.86089
upperneck -4.32853 19.7126 -6.59785
head 0.14915 9.80987 -2.6994
rclavicle 1.19668e-013 8.74653e-014
rhumerus -27.0815 -19.2136 -0.85053
rradius 22.8362
rwrist 1.25738
rhand -9.7358 15.6482
rfingers 7.12502
rthumb 16.238 -13.6918
lclavicle 1.19668e-013 8.74653e-014
lhumerus 56.3844 -1.821 29.4234
lradius 29.8202
lwrist -18.4489
lhand -16.688 13.4637
lfingers 7.12502
lthumb 9.53637 43.2279
rfemur 291.42 -6.04946 -332.034
rtibia 42.7645
rfoot 136.24 -230.112
rtoes 36.1001
lfemur -17.0904 2.03033 -22.9389
ltibia 35.1996
lfoot 186.533 -141.756
ltoes 22.1654
781
root -9.89615 16.1454 -13.449 -141.244 -44.1738 -188.278
lowerback -11.1828 -2.67445 -2.05165
upperback -16.7992 -7.13281 -6.00841
thorax -13.0054 -5.13356 -5.21472
lowerneck -6.67892 15.009 2.68393
upperneck -2.42867 19.7373 -5.28398
head 1.14268 9.73759 -1.35635
rclavicle 2.72335e-014 -1.74931e-014
rhumerus -28.5557 -24.1105 0.852668
rradius 22.1352
rwrist 2.31602
rhand -10.8645 16.4544
rfingers 7.12502
rthumb 15.151 -12.971
lclavicle 2.72335e-014 -1.74931e-014
lhumerus 57.7985 0.914655 36.3359
lradius 27.6177
lwrist -22.9188
lhand -15.9397 11.5431
lfingers 7.12502
lthumb 10.2583 41.273
rfemur 291.668 -6.17333 -331.716
rtibia 42.6798
rfoot 136.398 -230.191
rtoes 35.8539
lfemur -16.9179 2.34814 -22.8626
ltibia 35.4546
lfoot 183.775 -141.722
ltoes 24.4818
782
root -9.89186 16.1386 -13.4528 -141.385 -44.7241 -188.349
lowerback -11.5488 -2.54689 -1.77556
upperback -16.1447 -6.70169 -6.15526
thorax -11.9584 -4.87212 -5.60691
lowerneck -7.42918 15.0394 2.13914
upperneck -3.09067 19.7434 -5.99174
head 1.0769 9.7146 -1.45846
rclavicle 2.04748e-014 1.27222e-014
rhumerus -30.291 -27.3562 2.03494
rradius 21.5158
rwrist 3.59986
rhand -11.6053 16.8691
rfingers 7.12502
rthumb 14.4373 -12.6087
lclavicle 2.04748e-014 1.27222e-014
lhumerus 57.9333 1.89083 41.2505
lradius 26.4573
lwrist -25.9968
lhand -15.391 11.7516
lfingers 7.12502
lthumb 10.7876 41.4545
rfemur 291.732 -7.24442 -330.866
rtibia 42.7613
rfoot 137.219 -229.709
rtoes 35.6609
lfemur -16.6973 3.23142 -22.7667
ltibia 35.6118
lfoot 183.953 -142.621
ltoes 23.7425
